<?xml version="1.0" encoding="UTF-8" standalone="no"?>
<!-- Created with Inkscape (http://www.inkscape.org/) -->

<svg
   version="1.1"
   id="svg2"
   width="4000"
   height="4000"
   viewBox="0 0 4000 4000"
   sodipodi:docname="vecteezy_hacker-glyph-icon_4680319.eps"
   xmlns:inkscape="http://www.inkscape.org/namespaces/inkscape"
   xmlns:sodipodi="http://sodipodi.sourceforge.net/DTD/sodipodi-0.dtd"
   xmlns="http://www.w3.org/2000/svg"
   xmlns:svg="http://www.w3.org/2000/svg">
  <defs
     id="defs6">
    <clipPath
       clipPathUnits="userSpaceOnUse"
       id="clipPath18">
      <path
         d="m 15000,10364.5 c -411.2,0 -746,334.7 -746,746.1 0,411.4 334.8,746.2 746,746.2 411.3,0 746.1,-334.8 746.1,-746.2 0,-411.4 -334.8,-746.1 -746.1,-746.1 z m 0,2206.6 c -805.3,0 -1460.3,-655.2 -1460.3,-1460.5 0,-805.2 655,-1460.4 1460.3,-1460.4 805.4,0 1460.4,655.2 1460.4,1460.4 0,805.3 -655,1460.5 -1460.4,1460.5 z m 8872.2,-3458.2 c -120,-736.3 -520.4,-1211 -1176.2,-1407.2 l -953.2,-244.8 v 5593.8 c 0,984.7 -801.2,1785.8 -1785.8,1785.8 h -2773.6 c 688.7,685.8 1195.1,1571.2 1552.9,2380.4 783.9,-136.6 3087.2,-652.6 3614.4,-2067.9 l 1432.5,-4884.7 c 119.3,-405.5 149.3,-793.7 89,-1155.4 z M 19957,5714.3 h -9916 c -590.86,0 -1071.49,480.6 -1071.49,1071.5 v 594.8 H 21028.5 v -594.8 c 0,-590.9 -480.6,-1071.5 -1071.5,-1071.5 z M 6127.59,9114.1 c -60,360.5 -30,748.7 89.63,1154.5 l 1424.1,4860.4 c 533.21,1433.9 2844.58,1954.9 3625.88,2092.1 357.7,-809.2 864.2,-1694.7 1553,-2380.6 H 10041 c -984.65,0 -1785.81,-801.1 -1785.81,-1785.8 V 7461.3 l -937.89,240.6 c -668.97,200 -1069.38,674.7 -1189.71,1412.2 z m 7947.11,14872.7 c 0,0 0,0 0.4,0 276.9,199.1 602,298.7 926.7,298.7 325.1,0 649.8,-99.6 927.4,-298.7 910.3,-654.4 2061.3,-1835.2 2650.1,-3842.1 -811.6,370.8 -2197.7,883.1 -3561.5,820.9 -1381.9,60.1 -2780.2,-451 -3593.5,-821.6 588.7,2007.6 1739.7,3188.4 2650.4,3842.8 z m -1066.3,-4016.1 c 616.9,180.3 1317.9,311.8 2009.4,281.3 677.7,29.7 1367.9,-100.6 1977.6,-279.4 l -259.1,-1696.9 c -82,-536.2 -400.1,-996.8 -873,-1263.5 -531.6,-299.2 -1191.5,-299.2 -1723,0 -473,266.7 -791.1,727.3 -873,1263.5 z m 3052,-5130.2 h -2117.2 c -1645,1062.4 -2426.9,3636.3 -2638.9,4450.3 217.2,111.5 573.2,282.2 1016.8,450.2 l 240.2,-1573 c 115.1,-755 563,-1403 1228.4,-1778 374,-210.7 792.8,-316 1212.1,-316 419.2,0 838.5,105.3 1212.4,316 665.1,375.1 1113,1023.2 1228.1,1778 l 240.4,1574.2 c 443,-168.3 799.1,-339.5 1016.5,-451.3 -212,-814 -993.8,-3388 -2638.8,-4450.4 z M 21028.5,8095 H 8969.51 v 4959.7 c 0,590.9 480.63,1071.5 1071.49,1071.5 h 9916 c 590.9,0 1071.5,-480.6 1071.5,-1071.5 z m 3440.1,2374.5 -1440.2,4908.5 c -633,1701.8 -3008.3,2327 -4017.9,2519.5 302.5,816 450.1,1513.5 451,1518.6 6.8,40.2 0.7,128.6 0.6,129.2 -544.1,2690.7 -1995.1,4215.8 -3116.4,5021.5 -803.6,577.6 -1883.5,577.6 -2687.8,0 h 0.4 c -1121.7,-805.3 -2572.7,-2330.4 -3116.8,-5021.5 -0.1,-0.6 -6.2,-89 0.6,-129.2 0.8,-5.1 148.5,-702.4 450.8,-1518.1 -1007.96,-192.6 -3389.14,-821.2 -4029.27,-2544.1 l -1431.77,-4884 C 5381.53,9960.1 5344.91,9464.5 5422.69,8997.8 5586.27,7997.7 6186.18,7294.3 7126.16,7013.7 L 8261.62,6722.1 C 8296.02,5767.5 9078.15,5000 10041,5000 h 9916 c 962.7,0 1744.7,767.3 1779.3,1721.7 l 1150.9,295.9 c 926.7,276.7 1526.6,980.1 1689.9,1979 78.1,467.9 41.5,963.5 -108.5,1472.9 z"
         id="path16" />
    </clipPath>
    <linearGradient
       x1="0"
       y1="0"
       x2="1"
       y2="0"
       gradientUnits="userSpaceOnUse"
       gradientTransform="matrix(19234,0,0,-19234,5383,15000)"
       spreadMethod="pad"
       id="linearGradient24">
      <stop
         style="stop-opacity:1;stop-color:#7f47a8"
         offset="0"
         id="stop20" />
      <stop
         style="stop-opacity:1;stop-color:#8171be"
         offset="1"
         id="stop22" />
    </linearGradient>
  </defs>
  <sodipodi:namedview
     id="namedview4"
     pagecolor="#ffffff"
     bordercolor="#000000"
     borderopacity="0.25"
     inkscape:showpageshadow="2"
     inkscape:pageopacity="0.0"
     inkscape:pagecheckerboard="0"
     inkscape:deskcolor="#d1d1d1" />
  <g
     id="g8"
     inkscape:groupmode="layer"
     inkscape:label="ink_ext_XXXXXX"
     transform="matrix(1.3333333,0,0,-1.3333333,0,4000)">
    <g
       id="g10"
       transform="scale(0.1)">
      <g
         id="g12">
        <g
           id="g14"
           clip-path="url(#clipPath18)">
          <path
             d="m 15000,10364.5 c -411.2,0 -746,334.7 -746,746.1 0,411.4 334.8,746.2 746,746.2 411.3,0 746.1,-334.8 746.1,-746.2 0,-411.4 -334.8,-746.1 -746.1,-746.1 z m 0,2206.6 c -805.3,0 -1460.3,-655.2 -1460.3,-1460.5 0,-805.2 655,-1460.4 1460.3,-1460.4 805.4,0 1460.4,655.2 1460.4,1460.4 0,805.3 -655,1460.5 -1460.4,1460.5 z m 8872.2,-3458.2 c -120,-736.3 -520.4,-1211 -1176.2,-1407.2 l -953.2,-244.8 v 5593.8 c 0,984.7 -801.2,1785.8 -1785.8,1785.8 h -2773.6 c 688.7,685.8 1195.1,1571.2 1552.9,2380.4 783.9,-136.6 3087.2,-652.6 3614.4,-2067.9 l 1432.5,-4884.7 c 119.3,-405.5 149.3,-793.7 89,-1155.4 z M 19957,5714.3 h -9916 c -590.86,0 -1071.49,480.6 -1071.49,1071.5 v 594.8 H 21028.5 v -594.8 c 0,-590.9 -480.6,-1071.5 -1071.5,-1071.5 z M 6127.59,9114.1 c -60,360.5 -30,748.7 89.63,1154.5 l 1424.1,4860.4 c 533.21,1433.9 2844.58,1954.9 3625.88,2092.1 357.7,-809.2 864.2,-1694.7 1553,-2380.6 H 10041 c -984.65,0 -1785.81,-801.1 -1785.81,-1785.8 V 7461.3 l -937.89,240.6 c -668.97,200 -1069.38,674.7 -1189.71,1412.2 z m 7947.11,14872.7 c 0,0 0,0 0.4,0 276.9,199.1 602,298.7 926.7,298.7 325.1,0 649.8,-99.6 927.4,-298.7 910.3,-654.4 2061.3,-1835.2 2650.1,-3842.1 -811.6,370.8 -2197.7,883.1 -3561.5,820.9 -1381.9,60.1 -2780.2,-451 -3593.5,-821.6 588.7,2007.6 1739.7,3188.4 2650.4,3842.8 z m -1066.3,-4016.1 c 616.9,180.3 1317.9,311.8 2009.4,281.3 677.7,29.7 1367.9,-100.6 1977.6,-279.4 l -259.1,-1696.9 c -82,-536.2 -400.1,-996.8 -873,-1263.5 -531.6,-299.2 -1191.5,-299.2 -1723,0 -473,266.7 -791.1,727.3 -873,1263.5 z m 3052,-5130.2 h -2117.2 c -1645,1062.4 -2426.9,3636.3 -2638.9,4450.3 217.2,111.5 573.2,282.2 1016.8,450.2 l 240.2,-1573 c 115.1,-755 563,-1403 1228.4,-1778 374,-210.7 792.8,-316 1212.1,-316 419.2,0 838.5,105.3 1212.4,316 665.1,375.1 1113,1023.2 1228.1,1778 l 240.4,1574.2 c 443,-168.3 799.1,-339.5 1016.5,-451.3 -212,-814 -993.8,-3388 -2638.8,-4450.4 z M 21028.5,8095 H 8969.51 v 4959.7 c 0,590.9 480.63,1071.5 1071.49,1071.5 h 9916 c 590.9,0 1071.5,-480.6 1071.5,-1071.5 z m 3440.1,2374.5 -1440.2,4908.5 c -633,1701.8 -3008.3,2327 -4017.9,2519.5 302.5,816 450.1,1513.5 451,1518.6 6.8,40.2 0.7,128.6 0.6,129.2 -544.1,2690.7 -1995.1,4215.8 -3116.4,5021.5 -803.6,577.6 -1883.5,577.6 -2687.8,0 h 0.4 c -1121.7,-805.3 -2572.7,-2330.4 -3116.8,-5021.5 -0.1,-0.6 -6.2,-89 0.6,-129.2 0.8,-5.1 148.5,-702.4 450.8,-1518.1 -1007.96,-192.6 -3389.14,-821.2 -4029.27,-2544.1 l -1431.77,-4884 C 5381.53,9960.1 5344.91,9464.5 5422.69,8997.8 5586.27,7997.7 6186.18,7294.3 7126.16,7013.7 L 8261.62,6722.1 C 8296.02,5767.5 9078.15,5000 10041,5000 h 9916 c 962.7,0 1744.7,767.3 1779.3,1721.7 l 1150.9,295.9 c 926.7,276.7 1526.6,980.1 1689.9,1979 78.1,467.9 41.5,963.5 -108.5,1472.9"
             style="fill:url(#linearGradient24);fill-opacity:1;fill-rule:nonzero;stroke:none"
             id="path26" />
        </g>
      </g>
    </g>
  </g>
</svg>
